<svg width="80" height="80" viewBox="0 0 80 80" fill="none" xmlns="http://www.w3.org/2000/svg">
    <g clip-path="url(#clip0_940_2)">
        <rect x="-0.267578" width="80.2667" height="80" fill="url(#paint0_radial_940_2)"/>
        <path fill-rule="evenodd" clip-rule="evenodd" d="M39.9619 65.2558C53.9316 65.2558 65.2564 53.931 65.2564 39.9612C65.2564 25.9915 53.9316 14.6667 39.9619 14.6667C25.9921 14.6667 14.6673 25.9915 14.6673 39.9612C14.6673 53.931 25.9921 65.2558 39.9619 65.2558ZM39.9619 66.5891C54.668 66.5891 66.5897 54.6674 66.5897 39.9612C66.5897 25.2551 54.668 13.3334 39.9619 13.3334C25.2557 13.3334 13.334 25.2551 13.334 39.9612C13.334 54.6674 25.2557 66.5891 39.9619 66.5891Z" fill="white"/>
        <path fill-rule="evenodd" clip-rule="evenodd" d="M39.8471 58.5988C50.2037 58.5988 58.5994 50.2031 58.5994 39.8465C58.5994 29.4898 50.2037 21.0941 39.8471 21.0941C29.4904 21.0941 21.0947 29.4898 21.0947 39.8465C21.0947 50.2031 29.4904 58.5988 39.8471 58.5988ZM39.8471 59.9321C50.9401 59.9321 59.9327 50.9395 59.9327 39.8465C59.9327 28.7535 50.9401 19.7608 39.8471 19.7608C28.7541 19.7608 19.7614 28.7535 19.7614 39.8465C19.7614 50.9395 28.7541 59.9321 39.8471 59.9321Z" fill="white"/>
        <path fill-rule="evenodd" clip-rule="evenodd" d="M39.1807 20.24C39.4777 20.2267 39.7765 20.2199 40.0769 20.2199C40.223 20.2199 40.3687 20.2215 40.514 20.2247V14.022H39.1807V20.24ZM49.0547 22.389C49.4507 22.5931 49.8389 22.8102 50.2186 23.0399L53.2989 17.7045L52.1442 17.0379L49.0547 22.389ZM56.6922 29.395C56.9289 29.7704 57.1532 30.1545 57.3645 30.5465L62.8855 27.3589L62.2188 26.2042L56.6922 29.395ZM59.6923 39.1798C59.6997 39.4011 59.7034 39.6234 59.7034 39.8465C59.7034 40.0696 59.6997 40.2918 59.6923 40.5131H66.3604V39.1798H59.6923ZM57.437 49.0108C57.2287 49.4044 57.0075 49.7902 56.7738 50.1675L62.7927 53.6425L63.4594 52.4878L57.437 49.0108ZM50.2619 56.6268C49.8828 56.8574 49.4953 57.0755 49.0999 57.2806L52.0861 62.5934L53.2484 61.94L50.2619 56.6268ZM40.514 59.4683C40.3687 59.4715 40.223 59.473 40.0769 59.473C39.7765 59.473 39.4777 59.4663 39.1807 59.453V66.5891H40.514V59.4683ZM30.5924 57.0334C30.2027 56.8178 29.8211 56.5894 29.4481 56.3487L25.8607 62.5623L27.0154 63.229L30.5924 57.0334ZM23.38 50.1675C23.1463 49.7902 22.925 49.4044 22.7168 49.0108L16.6944 52.4878L17.3611 53.6425L23.38 50.1675ZM20.4614 40.5131C20.454 40.2918 20.4503 40.0696 20.4503 39.8465C20.4503 39.6234 20.454 39.4011 20.4614 39.1798H13.7933V40.5131H20.4614ZM22.7893 30.5465L17.2683 27.3589L17.9349 26.2042L23.4615 29.395C23.2249 29.7704 23.0006 30.1545 22.7893 30.5465ZM31.0357 22.4218C30.6405 22.6273 30.2532 22.8458 29.8743 23.0768L26.8509 17.6979L28.0132 17.0445L31.0357 22.4218Z" fill="white"/>
    </g>
    <defs>
        <radialGradient id="paint0_radial_940_2" cx="0" cy="0" r="1" gradientUnits="userSpaceOnUse" gradientTransform="translate(78.9289 -1.7134e-06) rotate(132.483) scale(92.3876 92.446)">
            <stop stop-color="#9FAFDA"/>
            <stop offset="1" stop-color="#1C1D1F"/>
        </radialGradient>
        <clipPath id="clip0_940_2">
            <rect width="80" height="80" rx="20" fill="white"/>
        </clipPath>
    </defs>
</svg>
